<mxfile host="app.diagrams.net" modified="2020-11-12T14:16:15.471Z" agent="5.0 (Windows NT 10.0; Win64; x64) AppleWebKit/537.36 (KHTML, like Gecko) Chrome/86.0.4240.193 Safari/537.36" etag="TrdhnVZAJTWlOS28LyKz" version="13.9.7" type="github">
  <diagram id="knlMWCkI0kDNxpSQIaI-" name="Page-1">
    <mxGraphModel dx="1422" dy="737" grid="1" gridSize="10" guides="1" tooltips="1" connect="1" arrows="1" fold="1" page="1" pageScale="1" pageWidth="850" pageHeight="1100" math="0" shadow="0">
      <root>
        <mxCell id="0" />
        <mxCell id="1" parent="0" />
        <mxCell id="LLkdCLFKFuebZuNzH71b-1" value="Начало" style="ellipse;whiteSpace=wrap;html=1;aspect=fixed;" vertex="1" parent="1">
          <mxGeometry x="380" y="40" width="80" height="80" as="geometry" />
        </mxCell>
        <mxCell id="LLkdCLFKFuebZuNzH71b-10" style="edgeStyle=orthogonalEdgeStyle;rounded=0;orthogonalLoop=1;jettySize=auto;html=1;exitX=0.5;exitY=1;exitDx=0;exitDy=0;entryX=0.5;entryY=0;entryDx=0;entryDy=0;" edge="1" parent="1" source="LLkdCLFKFuebZuNzH71b-2" target="LLkdCLFKFuebZuNzH71b-3">
          <mxGeometry relative="1" as="geometry" />
        </mxCell>
        <mxCell id="LLkdCLFKFuebZuNzH71b-2" value="Объявление A, B и C" style="rounded=1;whiteSpace=wrap;html=1;" vertex="1" parent="1">
          <mxGeometry x="350" y="160" width="140" height="60" as="geometry" />
        </mxCell>
        <mxCell id="LLkdCLFKFuebZuNzH71b-12" style="edgeStyle=orthogonalEdgeStyle;rounded=0;orthogonalLoop=1;jettySize=auto;html=1;entryX=0.5;entryY=0;entryDx=0;entryDy=0;" edge="1" parent="1" source="LLkdCLFKFuebZuNzH71b-3" target="LLkdCLFKFuebZuNzH71b-4">
          <mxGeometry relative="1" as="geometry" />
        </mxCell>
        <mxCell id="LLkdCLFKFuebZuNzH71b-21" value="True" style="edgeLabel;html=1;align=center;verticalAlign=middle;resizable=0;points=[];" vertex="1" connectable="0" parent="LLkdCLFKFuebZuNzH71b-12">
          <mxGeometry x="-0.24" y="-2" relative="1" as="geometry">
            <mxPoint x="17" y="2" as="offset" />
          </mxGeometry>
        </mxCell>
        <mxCell id="LLkdCLFKFuebZuNzH71b-23" style="edgeStyle=orthogonalEdgeStyle;rounded=0;orthogonalLoop=1;jettySize=auto;html=1;exitX=1;exitY=0.5;exitDx=0;exitDy=0;entryX=0.5;entryY=0;entryDx=0;entryDy=0;" edge="1" parent="1" source="LLkdCLFKFuebZuNzH71b-3" target="LLkdCLFKFuebZuNzH71b-5">
          <mxGeometry relative="1" as="geometry" />
        </mxCell>
        <mxCell id="LLkdCLFKFuebZuNzH71b-24" value="False" style="edgeLabel;html=1;align=center;verticalAlign=middle;resizable=0;points=[];" vertex="1" connectable="0" parent="LLkdCLFKFuebZuNzH71b-23">
          <mxGeometry x="-0.68" y="-1" relative="1" as="geometry">
            <mxPoint as="offset" />
          </mxGeometry>
        </mxCell>
        <mxCell id="LLkdCLFKFuebZuNzH71b-3" value="A &amp;gt; B" style="rhombus;whiteSpace=wrap;html=1;" vertex="1" parent="1">
          <mxGeometry x="380" y="260" width="80" height="80" as="geometry" />
        </mxCell>
        <mxCell id="LLkdCLFKFuebZuNzH71b-14" style="edgeStyle=orthogonalEdgeStyle;rounded=0;orthogonalLoop=1;jettySize=auto;html=1;exitX=1;exitY=0.5;exitDx=0;exitDy=0;entryX=0.167;entryY=0;entryDx=0;entryDy=0;entryPerimeter=0;" edge="1" parent="1" source="LLkdCLFKFuebZuNzH71b-4" target="LLkdCLFKFuebZuNzH71b-7">
          <mxGeometry relative="1" as="geometry">
            <Array as="points">
              <mxPoint x="380" y="400" />
            </Array>
          </mxGeometry>
        </mxCell>
        <mxCell id="LLkdCLFKFuebZuNzH71b-27" value="False" style="edgeLabel;html=1;align=center;verticalAlign=middle;resizable=0;points=[];" vertex="1" connectable="0" parent="LLkdCLFKFuebZuNzH71b-14">
          <mxGeometry x="-0.3846" y="2" relative="1" as="geometry">
            <mxPoint x="-20" y="2" as="offset" />
          </mxGeometry>
        </mxCell>
        <mxCell id="LLkdCLFKFuebZuNzH71b-16" style="edgeStyle=orthogonalEdgeStyle;rounded=0;orthogonalLoop=1;jettySize=auto;html=1;exitX=0;exitY=0.5;exitDx=0;exitDy=0;entryX=0.5;entryY=0;entryDx=0;entryDy=0;" edge="1" parent="1" source="LLkdCLFKFuebZuNzH71b-4" target="LLkdCLFKFuebZuNzH71b-6">
          <mxGeometry relative="1" as="geometry" />
        </mxCell>
        <mxCell id="LLkdCLFKFuebZuNzH71b-25" value="True" style="edgeLabel;html=1;align=center;verticalAlign=middle;resizable=0;points=[];" vertex="1" connectable="0" parent="LLkdCLFKFuebZuNzH71b-16">
          <mxGeometry x="-0.4286" y="-1" relative="1" as="geometry">
            <mxPoint as="offset" />
          </mxGeometry>
        </mxCell>
        <mxCell id="LLkdCLFKFuebZuNzH71b-4" value="A &amp;gt; C" style="rhombus;whiteSpace=wrap;html=1;" vertex="1" parent="1">
          <mxGeometry x="250" y="360" width="80" height="80" as="geometry" />
        </mxCell>
        <mxCell id="LLkdCLFKFuebZuNzH71b-15" style="edgeStyle=orthogonalEdgeStyle;rounded=0;orthogonalLoop=1;jettySize=auto;html=1;exitX=0;exitY=0.5;exitDx=0;exitDy=0;" edge="1" parent="1" source="LLkdCLFKFuebZuNzH71b-5">
          <mxGeometry relative="1" as="geometry">
            <mxPoint x="460" y="480" as="targetPoint" />
            <Array as="points">
              <mxPoint x="460" y="400" />
            </Array>
          </mxGeometry>
        </mxCell>
        <mxCell id="LLkdCLFKFuebZuNzH71b-28" value="False" style="edgeLabel;html=1;align=center;verticalAlign=middle;resizable=0;points=[];" vertex="1" connectable="0" parent="LLkdCLFKFuebZuNzH71b-15">
          <mxGeometry x="-0.7846" y="-3" relative="1" as="geometry">
            <mxPoint x="-16" y="3" as="offset" />
          </mxGeometry>
        </mxCell>
        <mxCell id="LLkdCLFKFuebZuNzH71b-17" style="edgeStyle=orthogonalEdgeStyle;rounded=0;orthogonalLoop=1;jettySize=auto;html=1;exitX=1;exitY=0.5;exitDx=0;exitDy=0;entryX=0.5;entryY=0;entryDx=0;entryDy=0;" edge="1" parent="1" source="LLkdCLFKFuebZuNzH71b-5" target="LLkdCLFKFuebZuNzH71b-8">
          <mxGeometry relative="1" as="geometry" />
        </mxCell>
        <mxCell id="LLkdCLFKFuebZuNzH71b-26" value="True" style="edgeLabel;html=1;align=center;verticalAlign=middle;resizable=0;points=[];" vertex="1" connectable="0" parent="LLkdCLFKFuebZuNzH71b-17">
          <mxGeometry x="-0.7467" y="-2" relative="1" as="geometry">
            <mxPoint as="offset" />
          </mxGeometry>
        </mxCell>
        <mxCell id="LLkdCLFKFuebZuNzH71b-5" value="B &amp;gt; C" style="rhombus;whiteSpace=wrap;html=1;" vertex="1" parent="1">
          <mxGeometry x="510" y="360" width="80" height="80" as="geometry" />
        </mxCell>
        <mxCell id="LLkdCLFKFuebZuNzH71b-18" style="edgeStyle=orthogonalEdgeStyle;rounded=0;orthogonalLoop=1;jettySize=auto;html=1;exitX=0.5;exitY=1;exitDx=0;exitDy=0;entryX=0.5;entryY=0;entryDx=0;entryDy=0;" edge="1" parent="1" source="LLkdCLFKFuebZuNzH71b-6" target="LLkdCLFKFuebZuNzH71b-11">
          <mxGeometry relative="1" as="geometry" />
        </mxCell>
        <mxCell id="LLkdCLFKFuebZuNzH71b-6" value="Напечатать A" style="rounded=1;whiteSpace=wrap;html=1;" vertex="1" parent="1">
          <mxGeometry x="130" y="480" width="120" height="60" as="geometry" />
        </mxCell>
        <mxCell id="LLkdCLFKFuebZuNzH71b-19" style="edgeStyle=orthogonalEdgeStyle;rounded=0;orthogonalLoop=1;jettySize=auto;html=1;exitX=0.5;exitY=1;exitDx=0;exitDy=0;" edge="1" parent="1" source="LLkdCLFKFuebZuNzH71b-7">
          <mxGeometry relative="1" as="geometry">
            <mxPoint x="420" y="590" as="targetPoint" />
            <Array as="points">
              <mxPoint x="420" y="570" />
              <mxPoint x="420" y="570" />
            </Array>
          </mxGeometry>
        </mxCell>
        <mxCell id="LLkdCLFKFuebZuNzH71b-7" value="Напечатать C" style="rounded=1;whiteSpace=wrap;html=1;" vertex="1" parent="1">
          <mxGeometry x="360" y="480" width="120" height="60" as="geometry" />
        </mxCell>
        <mxCell id="LLkdCLFKFuebZuNzH71b-20" style="edgeStyle=orthogonalEdgeStyle;rounded=0;orthogonalLoop=1;jettySize=auto;html=1;exitX=0.5;exitY=1;exitDx=0;exitDy=0;" edge="1" parent="1" source="LLkdCLFKFuebZuNzH71b-8">
          <mxGeometry relative="1" as="geometry">
            <mxPoint x="420" y="590" as="targetPoint" />
          </mxGeometry>
        </mxCell>
        <mxCell id="LLkdCLFKFuebZuNzH71b-8" value="Напечатать B" style="rounded=1;whiteSpace=wrap;html=1;" vertex="1" parent="1">
          <mxGeometry x="600" y="480" width="120" height="60" as="geometry" />
        </mxCell>
        <mxCell id="LLkdCLFKFuebZuNzH71b-9" value="" style="endArrow=classic;html=1;" edge="1" parent="1" source="LLkdCLFKFuebZuNzH71b-1" target="LLkdCLFKFuebZuNzH71b-2">
          <mxGeometry width="50" height="50" relative="1" as="geometry">
            <mxPoint x="550" y="105" as="sourcePoint" />
            <mxPoint x="600" y="55" as="targetPoint" />
          </mxGeometry>
        </mxCell>
        <mxCell id="LLkdCLFKFuebZuNzH71b-11" value="Конец" style="ellipse;whiteSpace=wrap;html=1;aspect=fixed;" vertex="1" parent="1">
          <mxGeometry x="380" y="590" width="80" height="80" as="geometry" />
        </mxCell>
      </root>
    </mxGraphModel>
  </diagram>
</mxfile>
